<mxfile host="app.diagrams.net" modified="2024-06-29T16:15:21.564Z" agent="Mozilla/5.0 (Windows NT 10.0; Win64; x64) AppleWebKit/537.36 (KHTML, like Gecko) Chrome/126.0.0.0 Safari/537.36" etag="g-oLU3iCNeM6JnnYyvhI" version="24.6.4" type="device">
  <diagram id="R2lEEEUBdFMjLlhIrx00" name="Page-1">
    <mxGraphModel dx="1120" dy="460" grid="1" gridSize="10" guides="1" tooltips="1" connect="1" arrows="1" fold="1" page="1" pageScale="1" pageWidth="850" pageHeight="1100" math="0" shadow="0" extFonts="Permanent Marker^https://fonts.googleapis.com/css?family=Permanent+Marker">
      <root>
        <mxCell id="0" />
        <mxCell id="1" parent="0" />
        <mxCell id="C-vyLk0tnHw3VtMMgP7b-1" value="" style="edgeStyle=entityRelationEdgeStyle;endArrow=ERzeroToMany;startArrow=ERone;endFill=1;startFill=0;" parent="1" source="C-vyLk0tnHw3VtMMgP7b-24" target="C-vyLk0tnHw3VtMMgP7b-6" edge="1">
          <mxGeometry width="100" height="100" relative="1" as="geometry">
            <mxPoint x="340" y="720" as="sourcePoint" />
            <mxPoint x="440" y="620" as="targetPoint" />
          </mxGeometry>
        </mxCell>
        <mxCell id="C-vyLk0tnHw3VtMMgP7b-12" value="" style="edgeStyle=entityRelationEdgeStyle;endArrow=ERzeroToMany;startArrow=ERone;endFill=1;startFill=0;" parent="1" source="C-vyLk0tnHw3VtMMgP7b-3" target="C-vyLk0tnHw3VtMMgP7b-17" edge="1">
          <mxGeometry width="100" height="100" relative="1" as="geometry">
            <mxPoint x="400" y="180" as="sourcePoint" />
            <mxPoint x="460" y="205" as="targetPoint" />
          </mxGeometry>
        </mxCell>
        <mxCell id="C-vyLk0tnHw3VtMMgP7b-2" value="Orders" style="shape=table;startSize=30;container=1;collapsible=1;childLayout=tableLayout;fixedRows=1;rowLines=0;fontStyle=1;align=center;resizeLast=1;" parent="1" vertex="1">
          <mxGeometry x="450" y="120" width="250" height="130" as="geometry" />
        </mxCell>
        <mxCell id="C-vyLk0tnHw3VtMMgP7b-3" value="" style="shape=partialRectangle;collapsible=0;dropTarget=0;pointerEvents=0;fillColor=none;points=[[0,0.5],[1,0.5]];portConstraint=eastwest;top=0;left=0;right=0;bottom=1;" parent="C-vyLk0tnHw3VtMMgP7b-2" vertex="1">
          <mxGeometry y="30" width="250" height="30" as="geometry" />
        </mxCell>
        <mxCell id="C-vyLk0tnHw3VtMMgP7b-4" value="PK" style="shape=partialRectangle;overflow=hidden;connectable=0;fillColor=none;top=0;left=0;bottom=0;right=0;fontStyle=1;" parent="C-vyLk0tnHw3VtMMgP7b-3" vertex="1">
          <mxGeometry width="30" height="30" as="geometry" />
        </mxCell>
        <mxCell id="C-vyLk0tnHw3VtMMgP7b-5" value="order_id int NOT NULL " style="shape=partialRectangle;overflow=hidden;connectable=0;fillColor=none;top=0;left=0;bottom=0;right=0;align=left;spacingLeft=6;fontStyle=5;" parent="C-vyLk0tnHw3VtMMgP7b-3" vertex="1">
          <mxGeometry x="30" width="220" height="30" as="geometry" />
        </mxCell>
        <mxCell id="C-vyLk0tnHw3VtMMgP7b-6" value="" style="shape=partialRectangle;collapsible=0;dropTarget=0;pointerEvents=0;fillColor=none;points=[[0,0.5],[1,0.5]];portConstraint=eastwest;top=0;left=0;right=0;bottom=0;" parent="C-vyLk0tnHw3VtMMgP7b-2" vertex="1">
          <mxGeometry y="60" width="250" height="30" as="geometry" />
        </mxCell>
        <mxCell id="C-vyLk0tnHw3VtMMgP7b-7" value="FK1" style="shape=partialRectangle;overflow=hidden;connectable=0;fillColor=none;top=0;left=0;bottom=0;right=0;" parent="C-vyLk0tnHw3VtMMgP7b-6" vertex="1">
          <mxGeometry width="30" height="30" as="geometry" />
        </mxCell>
        <mxCell id="C-vyLk0tnHw3VtMMgP7b-8" value="customer_id int NOT NULL" style="shape=partialRectangle;overflow=hidden;connectable=0;fillColor=none;top=0;left=0;bottom=0;right=0;align=left;spacingLeft=6;" parent="C-vyLk0tnHw3VtMMgP7b-6" vertex="1">
          <mxGeometry x="30" width="220" height="30" as="geometry" />
        </mxCell>
        <mxCell id="C-vyLk0tnHw3VtMMgP7b-9" value="" style="shape=partialRectangle;collapsible=0;dropTarget=0;pointerEvents=0;fillColor=none;points=[[0,0.5],[1,0.5]];portConstraint=eastwest;top=0;left=0;right=0;bottom=0;" parent="C-vyLk0tnHw3VtMMgP7b-2" vertex="1">
          <mxGeometry y="90" width="250" height="30" as="geometry" />
        </mxCell>
        <mxCell id="C-vyLk0tnHw3VtMMgP7b-10" value="" style="shape=partialRectangle;overflow=hidden;connectable=0;fillColor=none;top=0;left=0;bottom=0;right=0;" parent="C-vyLk0tnHw3VtMMgP7b-9" vertex="1">
          <mxGeometry width="30" height="30" as="geometry" />
        </mxCell>
        <mxCell id="C-vyLk0tnHw3VtMMgP7b-11" value="order_date date NOT NULL" style="shape=partialRectangle;overflow=hidden;connectable=0;fillColor=none;top=0;left=0;bottom=0;right=0;align=left;spacingLeft=6;" parent="C-vyLk0tnHw3VtMMgP7b-9" vertex="1">
          <mxGeometry x="30" width="220" height="30" as="geometry" />
        </mxCell>
        <mxCell id="C-vyLk0tnHw3VtMMgP7b-13" value="Shipments" style="shape=table;startSize=30;container=1;collapsible=1;childLayout=tableLayout;fixedRows=1;rowLines=0;fontStyle=1;align=center;resizeLast=1;" parent="1" vertex="1">
          <mxGeometry x="450" y="280" width="250" height="130" as="geometry" />
        </mxCell>
        <mxCell id="C-vyLk0tnHw3VtMMgP7b-14" value="" style="shape=partialRectangle;collapsible=0;dropTarget=0;pointerEvents=0;fillColor=none;points=[[0,0.5],[1,0.5]];portConstraint=eastwest;top=0;left=0;right=0;bottom=1;" parent="C-vyLk0tnHw3VtMMgP7b-13" vertex="1">
          <mxGeometry y="30" width="250" height="30" as="geometry" />
        </mxCell>
        <mxCell id="C-vyLk0tnHw3VtMMgP7b-15" value="PK" style="shape=partialRectangle;overflow=hidden;connectable=0;fillColor=none;top=0;left=0;bottom=0;right=0;fontStyle=1;" parent="C-vyLk0tnHw3VtMMgP7b-14" vertex="1">
          <mxGeometry width="30" height="30" as="geometry" />
        </mxCell>
        <mxCell id="C-vyLk0tnHw3VtMMgP7b-16" value="shipment_id int NOT NULL " style="shape=partialRectangle;overflow=hidden;connectable=0;fillColor=none;top=0;left=0;bottom=0;right=0;align=left;spacingLeft=6;fontStyle=5;" parent="C-vyLk0tnHw3VtMMgP7b-14" vertex="1">
          <mxGeometry x="30" width="220" height="30" as="geometry" />
        </mxCell>
        <mxCell id="C-vyLk0tnHw3VtMMgP7b-17" value="" style="shape=partialRectangle;collapsible=0;dropTarget=0;pointerEvents=0;fillColor=none;points=[[0,0.5],[1,0.5]];portConstraint=eastwest;top=0;left=0;right=0;bottom=0;" parent="C-vyLk0tnHw3VtMMgP7b-13" vertex="1">
          <mxGeometry y="60" width="250" height="30" as="geometry" />
        </mxCell>
        <mxCell id="C-vyLk0tnHw3VtMMgP7b-18" value="FK1" style="shape=partialRectangle;overflow=hidden;connectable=0;fillColor=none;top=0;left=0;bottom=0;right=0;" parent="C-vyLk0tnHw3VtMMgP7b-17" vertex="1">
          <mxGeometry width="30" height="30" as="geometry" />
        </mxCell>
        <mxCell id="C-vyLk0tnHw3VtMMgP7b-19" value="order_id int NOT NULL" style="shape=partialRectangle;overflow=hidden;connectable=0;fillColor=none;top=0;left=0;bottom=0;right=0;align=left;spacingLeft=6;" parent="C-vyLk0tnHw3VtMMgP7b-17" vertex="1">
          <mxGeometry x="30" width="220" height="30" as="geometry" />
        </mxCell>
        <mxCell id="C-vyLk0tnHw3VtMMgP7b-20" value="" style="shape=partialRectangle;collapsible=0;dropTarget=0;pointerEvents=0;fillColor=none;points=[[0,0.5],[1,0.5]];portConstraint=eastwest;top=0;left=0;right=0;bottom=0;" parent="C-vyLk0tnHw3VtMMgP7b-13" vertex="1">
          <mxGeometry y="90" width="250" height="30" as="geometry" />
        </mxCell>
        <mxCell id="C-vyLk0tnHw3VtMMgP7b-21" value="" style="shape=partialRectangle;overflow=hidden;connectable=0;fillColor=none;top=0;left=0;bottom=0;right=0;" parent="C-vyLk0tnHw3VtMMgP7b-20" vertex="1">
          <mxGeometry width="30" height="30" as="geometry" />
        </mxCell>
        <mxCell id="C-vyLk0tnHw3VtMMgP7b-22" value="shipment_date date NOT NULL" style="shape=partialRectangle;overflow=hidden;connectable=0;fillColor=none;top=0;left=0;bottom=0;right=0;align=left;spacingLeft=6;" parent="C-vyLk0tnHw3VtMMgP7b-20" vertex="1">
          <mxGeometry x="30" width="220" height="30" as="geometry" />
        </mxCell>
        <mxCell id="C-vyLk0tnHw3VtMMgP7b-23" value="Customers" style="shape=table;startSize=30;container=1;collapsible=1;childLayout=tableLayout;fixedRows=1;rowLines=0;fontStyle=1;align=center;resizeLast=1;" parent="1" vertex="1">
          <mxGeometry x="120" y="120" width="250" height="100" as="geometry" />
        </mxCell>
        <mxCell id="C-vyLk0tnHw3VtMMgP7b-24" value="" style="shape=partialRectangle;collapsible=0;dropTarget=0;pointerEvents=0;fillColor=none;points=[[0,0.5],[1,0.5]];portConstraint=eastwest;top=0;left=0;right=0;bottom=1;" parent="C-vyLk0tnHw3VtMMgP7b-23" vertex="1">
          <mxGeometry y="30" width="250" height="30" as="geometry" />
        </mxCell>
        <mxCell id="C-vyLk0tnHw3VtMMgP7b-25" value="PK" style="shape=partialRectangle;overflow=hidden;connectable=0;fillColor=none;top=0;left=0;bottom=0;right=0;fontStyle=1;" parent="C-vyLk0tnHw3VtMMgP7b-24" vertex="1">
          <mxGeometry width="30" height="30" as="geometry" />
        </mxCell>
        <mxCell id="C-vyLk0tnHw3VtMMgP7b-26" value="customer_id int NOT NULL " style="shape=partialRectangle;overflow=hidden;connectable=0;fillColor=none;top=0;left=0;bottom=0;right=0;align=left;spacingLeft=6;fontStyle=5;" parent="C-vyLk0tnHw3VtMMgP7b-24" vertex="1">
          <mxGeometry x="30" width="220" height="30" as="geometry" />
        </mxCell>
        <mxCell id="C-vyLk0tnHw3VtMMgP7b-27" value="" style="shape=partialRectangle;collapsible=0;dropTarget=0;pointerEvents=0;fillColor=none;points=[[0,0.5],[1,0.5]];portConstraint=eastwest;top=0;left=0;right=0;bottom=0;" parent="C-vyLk0tnHw3VtMMgP7b-23" vertex="1">
          <mxGeometry y="60" width="250" height="30" as="geometry" />
        </mxCell>
        <mxCell id="C-vyLk0tnHw3VtMMgP7b-28" value="" style="shape=partialRectangle;overflow=hidden;connectable=0;fillColor=none;top=0;left=0;bottom=0;right=0;" parent="C-vyLk0tnHw3VtMMgP7b-27" vertex="1">
          <mxGeometry width="30" height="30" as="geometry" />
        </mxCell>
        <mxCell id="C-vyLk0tnHw3VtMMgP7b-29" value="customer_name char(50) NOT NULL" style="shape=partialRectangle;overflow=hidden;connectable=0;fillColor=none;top=0;left=0;bottom=0;right=0;align=left;spacingLeft=6;" parent="C-vyLk0tnHw3VtMMgP7b-27" vertex="1">
          <mxGeometry x="30" width="220" height="30" as="geometry" />
        </mxCell>
        <UserObject label="-- Definicion de la base de datos y su estructura&#xa;CREATE DATABASE TechStore;&#xa;&#xa;CREATE TABLE Cliente (&#xa;    id_cliente INT PRIMARY KEY,&#xa;    nombre VARCHAR(100) NOT NULL,&#xa;    telefono VARCHAR(15),&#xa;    direccion VARCHAR(100)&#xa;);&#xa;&#xa;CREATE TABLE Producto (&#xa;    id_producto INT PRIMARY KEY,&#xa;    nombre VARCHAR(100) NOT NULL,&#xa;    categoria VARCHAR(50) NOT NULL,&#xa;    stock INT NOT NULL CHECK (stock &gt;= 0),&#xa;    precio DECIMAL(10, 2) NOT NULL CHECK (precio &gt;= 0)&#xa;);&#xa;&#xa;CREATE TABLE Pedido (&#xa;    id_pedido INT PRIMARY KEY,&#xa;    id_cliente INT,&#xa;    fecha_pedido DATE NOT NULL,&#xa;    estado VARCHAR(20) NOT NULL,&#xa;    total_pedido DECIMAL(10, 2) NOT NULL CHECK (total_pedido &gt;= 0),&#xa;    FOREIGN KEY (id_cliente) REFERENCES Cliente(id_cliente)&#xa;);&#xa;&#xa;&#xa;CREATE TABLE DetallePedido (&#xa;    id_pedido INT,&#xa;    id_producto INT,&#xa;    cantidad INT NOT NULL CHECK (cantidad &gt; 0),&#xa;    PRIMARY KEY (id_pedido, id_producto),&#xa;    FOREIGN KEY (id_pedido) REFERENCES Pedido(id_pedido),&#xa;    FOREIGN KEY (id_producto) REFERENCES Producto(id_producto)&#xa;);&#xa;&#xa;CREATE TABLE Proveedor (&#xa;    id_proveedor INT PRIMARY KEY,&#xa;    nombre VARCHAR(100) NOT NULL,&#xa;    telefono VARCHAR(15),&#xa;    correo VARCHAR(100)&#xa;);&#xa;&#xa;CREATE TABLE Inventario (&#xa;    id_registro INT PRIMARY KEY,&#xa;    id_producto INT,&#xa;    tipo_registro ENUM(&#39;entrada&#39;, &#39;salida&#39;) NOT NULL,&#xa;    cantidad INT NOT NULL CHECK (cantidad &gt; 0),&#xa;    fecha_registro DATE NOT NULL,&#xa;    FOREIGN KEY (id_producto) REFERENCES Producto(id_producto)&#xa;);&#xa;&#xa;--Cantidad de pedidos mensuales:--&#xa;SELECT year(p.fecha_pedido) AS anio, MONTH(p.fecha_pedido) AS mes, count(dp.id_pedido) AS id_pedido FROM Pedido p INNER  JOIN DetallePedido dp ON p.id_pedido &#xa;GROUP BY &#xa;    YEAR(p.fecha_pedido), &#xa;    MONTH(p.fecha_pedido)&#xa;ORDER BY  anio, mes, id_pedido;&#xa;--Cantidad mensual pedida de cada artículo--&#xa;SELECT YEAR(p.fecha_pedido) AS anio, MONTH(p.fecha_pedido) AS mes, pr.nombre AS articulo, sum(dp.cantidad) AS cantidad FROM Pedido p &#xa;INNER JOIN DetallePedido dp ON p.id_pedido = dp.id_pedido&#xa;INNER JOIN Producto pr ON dp.id_pedido = pr.id_pedido &#xa;GROUP BY YEAR (p.fecha_pedido), MONTH(p.fecha_pedido), pr.nombre&#xa;ORDER BY anio, mes, articulo, cantidad;&#xa;--Clientes con más pedidos realizados:--&#xa;SELECT c.nombre, max(dp.cantidad) FROM Cliente c LEFT JOIN DetallePedido dp ON c.id_cliente = dp.id_cliente &#xa;GROUP BY c.id_cliente, c.nombre ORDER BY cantidad_pedidos DESC&#xa;LIMIT 1;&#xa;-- Ingreso mensual total por ventas:--&#xa;SELECT YEAR(p.fecha_pedido) AS anio, MONTH(p.fecha_pedido) AS mes, sum(p.cantidad) AS ingreso_total FROM Pedido p ORDER BY anio, mes, ingreso_total;" link="-- Definicion de la base de datos y su estructura&#xa;CREATE DATABASE TechStore;&#xa;&#xa;CREATE TABLE Cliente (&#xa;    id_cliente INT PRIMARY KEY,&#xa;    nombre VARCHAR(100) NOT NULL,&#xa;    telefono VARCHAR(15),&#xa;    direccion VARCHAR(100)&#xa;);&#xa;&#xa;CREATE TABLE Producto (&#xa;    id_producto INT PRIMARY KEY,&#xa;    nombre VARCHAR(100) NOT NULL,&#xa;    categoria VARCHAR(50) NOT NULL,&#xa;    stock INT NOT NULL CHECK (stock &gt;= 0),&#xa;    precio DECIMAL(10, 2) NOT NULL CHECK (precio &gt;= 0)&#xa;);&#xa;&#xa;CREATE TABLE Pedido (&#xa;    id_pedido INT PRIMARY KEY,&#xa;    id_cliente INT,&#xa;    fecha_pedido DATE NOT NULL,&#xa;    estado VARCHAR(20) NOT NULL,&#xa;    total_pedido DECIMAL(10, 2) NOT NULL CHECK (total_pedido &gt;= 0),&#xa;    FOREIGN KEY (id_cliente) REFERENCES Cliente(id_cliente)&#xa;);&#xa;&#xa;&#xa;CREATE TABLE DetallePedido (&#xa;    id_pedido INT,&#xa;    id_producto INT,&#xa;    cantidad INT NOT NULL CHECK (cantidad &gt; 0),&#xa;    PRIMARY KEY (id_pedido, id_producto),&#xa;    FOREIGN KEY (id_pedido) REFERENCES Pedido(id_pedido),&#xa;    FOREIGN KEY (id_producto) REFERENCES Producto(id_producto)&#xa;);&#xa;&#xa;CREATE TABLE Proveedor (&#xa;    id_proveedor INT PRIMARY KEY,&#xa;    nombre VARCHAR(100) NOT NULL,&#xa;    telefono VARCHAR(15),&#xa;    correo VARCHAR(100)&#xa;);&#xa;&#xa;CREATE TABLE Inventario (&#xa;    id_registro INT PRIMARY KEY,&#xa;    id_producto INT,&#xa;    tipo_registro ENUM(&#39;entrada&#39;, &#39;salida&#39;) NOT NULL,&#xa;    cantidad INT NOT NULL CHECK (cantidad &gt; 0),&#xa;    fecha_registro DATE NOT NULL,&#xa;    FOREIGN KEY (id_producto) REFERENCES Producto(id_producto)&#xa;);&#xa;&#xa;--Cantidad de pedidos mensuales:--&#xa;SELECT year(p.fecha_pedido) AS anio, MONTH(p.fecha_pedido) AS mes, count(dp.id_pedido) AS id_pedido FROM Pedido p INNER  JOIN DetallePedido dp ON p.id_pedido &#xa;GROUP BY &#xa;    YEAR(p.fecha_pedido), &#xa;    MONTH(p.fecha_pedido)&#xa;ORDER BY  anio, mes, id_pedido;&#xa;--Cantidad mensual pedida de cada artículo--&#xa;SELECT YEAR(p.fecha_pedido) AS anio, MONTH(p.fecha_pedido) AS mes, pr.nombre AS articulo, sum(dp.cantidad) AS cantidad FROM Pedido p &#xa;INNER JOIN DetallePedido dp ON p.id_pedido = dp.id_pedido&#xa;INNER JOIN Producto pr ON dp.id_pedido = pr.id_pedido &#xa;GROUP BY YEAR (p.fecha_pedido), MONTH(p.fecha_pedido), pr.nombre&#xa;ORDER BY anio, mes, articulo, cantidad;&#xa;--Clientes con más pedidos realizados:--&#xa;SELECT c.nombre, max(dp.cantidad) FROM Cliente c LEFT JOIN DetallePedido dp ON c.id_cliente = dp.id_cliente &#xa;GROUP BY c.id_cliente, c.nombre ORDER BY cantidad_pedidos DESC&#xa;LIMIT 1;&#xa;-- Ingreso mensual total por ventas:--&#xa;SELECT YEAR(p.fecha_pedido) AS anio, MONTH(p.fecha_pedido) AS mes, sum(p.cantidad) AS ingreso_total FROM Pedido p ORDER BY anio, mes, ingreso_total;" id="kGBMQRbzf6sDIckJFqTU-1">
          <mxCell style="text;whiteSpace=wrap;html=1;" vertex="1" parent="1">
            <mxGeometry x="30" y="40" width="560" height="1100" as="geometry" />
          </mxCell>
        </UserObject>
      </root>
    </mxGraphModel>
  </diagram>
</mxfile>
